<svg width="219" height="56" viewBox="0 0 219 56" fill="none" xmlns="http://www.w3.org/2000/svg">
<circle cx="25" cy="28" r="25" fill="#FAFF00"/>
<path d="M37.0761 27.2654H45.0995V40.5614C43.2656 41.8757 41.1566 42.8844 38.7725 43.5874C36.3884 44.2904 34.0043 44.6419 31.6202 44.6419C28.258 44.6419 25.232 43.9389 22.5422 42.5329C19.8525 41.0963 17.7434 39.1095 16.2152 36.5726C14.6869 34.0357 13.9228 31.1625 13.9228 27.9531C13.9228 24.7438 14.6869 21.8706 16.2152 19.3337C17.7434 16.7967 19.8677 14.8253 22.5881 13.4192C25.3084 11.9827 28.3802 11.2644 31.8036 11.2644C34.799 11.2644 37.4887 11.7687 39.8728 12.7774C42.257 13.786 44.2437 15.2379 45.8331 17.133L40.0562 22.3596C37.8861 19.9755 35.288 18.7835 32.262 18.7835C29.5112 18.7835 27.2952 19.624 25.6141 21.3051C23.933 22.9557 23.0924 25.1717 23.0924 27.9531C23.0924 29.7259 23.4745 31.3153 24.2386 32.7213C25.0027 34.0968 26.0725 35.1819 27.448 35.9766C28.8234 36.7407 30.3976 37.1228 32.1703 37.1228C33.9126 37.1228 35.5478 36.7713 37.0761 36.0683V27.2654ZM62.913 44.4126C60.2538 44.4126 57.8544 43.8625 55.7148 42.7621C53.5753 41.6617 51.8942 40.1335 50.6715 38.1773C49.4795 36.2211 48.8835 34.0051 48.8835 31.5293C48.8835 29.084 49.4795 26.8833 50.6715 24.9271C51.8942 22.971 53.56 21.458 55.669 20.3882C57.8086 19.2878 60.2232 18.7376 62.913 18.7376C65.6028 18.7376 68.0174 19.2878 70.157 20.3882C72.2966 21.458 73.9624 22.971 75.1545 24.9271C76.3465 26.8528 76.9426 29.0535 76.9426 31.5293C76.9426 34.0051 76.3465 36.2211 75.1545 38.1773C73.9624 40.1335 72.2966 41.6617 70.157 42.7621C68.0174 43.8625 65.6028 44.4126 62.913 44.4126ZM62.913 37.4896C64.4413 37.4896 65.6945 36.9699 66.6726 35.9307C67.6507 34.8609 68.1397 33.3938 68.1397 31.5293C68.1397 29.6954 67.6507 28.2588 66.6726 27.2196C65.6945 26.1803 64.4413 25.6607 62.913 25.6607C61.3847 25.6607 60.1315 26.1803 59.1535 27.2196C58.1754 28.2588 57.6863 29.6954 57.6863 31.5293C57.6863 33.3938 58.1754 34.8609 59.1535 35.9307C60.1315 36.9699 61.3847 37.4896 62.913 37.4896ZM98.1251 42.9913C97.3916 43.4498 96.4899 43.8013 95.4201 44.0458C94.3809 44.2904 93.2652 44.4126 92.0732 44.4126C88.8332 44.4126 86.3421 43.6179 84.5999 42.0285C82.8577 40.4391 81.9866 38.0703 81.9866 34.9221V26.5777H78.3646V20.0672H81.9866V13.6026H90.6977V20.0672H96.3829V26.5777H90.6977V34.8304C90.6977 35.7168 90.927 36.4198 91.3855 36.9394C91.8745 37.4284 92.5164 37.6729 93.3111 37.6729C94.3197 37.6729 95.2061 37.4131 95.9703 36.8935L98.1251 42.9913ZM109.783 22.1304C110.669 20.9995 111.815 20.1589 113.221 19.6088C114.658 19.028 116.293 18.7376 118.127 18.7376V26.5777C117.332 26.486 116.675 26.4401 116.156 26.4401C114.291 26.4401 112.824 26.9445 111.754 27.9531C110.715 28.9618 110.195 30.5053 110.195 32.5838V44H101.484V19.1503H109.783V22.1304ZM132.134 18.7376C136.26 18.7376 139.408 19.6852 141.578 21.5802C143.749 23.4447 144.834 26.3179 144.834 30.1997V44H136.719V40.7906C135.465 43.2053 133.02 44.4126 129.383 44.4126C127.457 44.4126 125.791 44.0764 124.385 43.404C122.979 42.7315 121.91 41.8299 121.176 40.6989C120.473 39.5374 120.122 38.2231 120.122 36.756C120.122 34.4024 121.023 32.5838 122.827 31.3C124.63 29.9857 127.411 29.3286 131.171 29.3286H136.123C135.97 26.6999 134.212 25.3856 130.85 25.3856C129.658 25.3856 128.451 25.5843 127.228 25.9817C126.005 26.3484 124.966 26.8681 124.11 27.5405L121.176 21.6261C122.551 20.7091 124.217 20.0061 126.173 19.5171C128.16 18.9974 130.147 18.7376 132.134 18.7376ZM131.813 38.9108C132.821 38.9108 133.708 38.6663 134.472 38.1773C135.236 37.6882 135.786 36.9699 136.123 36.0224V33.8675H132.363C129.826 33.8675 128.558 34.7081 128.558 36.3892C128.558 37.1533 128.848 37.7646 129.429 38.2231C130.009 38.6816 130.804 38.9108 131.813 38.9108ZM176.064 19.1503L165.794 44H156.808L146.583 19.1503H155.524L161.484 34.326L167.765 19.1503H176.064ZM203.044 31.621C203.044 31.6821 202.998 32.4004 202.907 33.7758H184.842C185.209 35.0596 185.912 36.053 186.951 36.756C188.021 37.4284 189.351 37.7646 190.94 37.7646C192.132 37.7646 193.156 37.5965 194.012 37.2603C194.898 36.9241 195.785 36.3739 196.671 35.6098L201.256 40.378C198.841 43.0678 195.311 44.4126 190.665 44.4126C187.761 44.4126 185.209 43.8625 183.008 42.7621C180.808 41.6617 179.096 40.1335 177.873 38.1773C176.681 36.2211 176.085 34.0051 176.085 31.5293C176.085 29.084 176.666 26.8986 177.828 24.973C179.02 23.0168 180.655 21.4885 182.733 20.3882C184.812 19.2878 187.15 18.7376 189.748 18.7376C192.224 18.7376 194.47 19.2573 196.488 20.2965C198.505 21.3051 200.095 22.7876 201.256 24.7438C202.448 26.6694 203.044 28.9618 203.044 31.621ZM189.794 24.9271C188.449 24.9271 187.318 25.3092 186.401 26.0734C185.515 26.8375 184.949 27.8767 184.705 29.191H194.883C194.639 27.8767 194.058 26.8375 193.141 26.0734C192.254 25.3092 191.139 24.9271 189.794 24.9271ZM207.06 9.98063H215.772V44H207.06V9.98063Z" fill="#45DF67"/>
</svg>
